<svg version="1.1" id="Layer_1" xmlns="http://www.w3.org/2000/svg" xmlns:xlink="http://www.w3.org/1999/xlink" x="0px" y="0px"
	 width="100%" viewBox="0 0 512 512" enable-background="new 0 0 512 512" xml:space="preserve">
<path fill="#FFFFFF" opacity="1.000000" stroke="none" 
	d="
M271.000000,1.000002 
	C351.627319,1.000000 432.254639,1.000000 512.940979,1.000000 
	C512.940979,171.544052 512.940979,342.088135 512.940979,513.000000 
	C465.646393,513.000000 418.291870,513.000000 370.707703,512.715210 
	C383.186462,509.573395 392.300476,501.945435 395.781281,489.639801 
	C406.594696,451.411285 416.674988,412.975250 427.027435,374.616455 
	C434.188019,348.084412 441.384796,321.561951 448.446198,295.003479 
	C450.823883,286.060791 452.834717,277.020538 455.281494,267.773743 
	C457.229218,261.028320 458.908691,254.534088 460.727661,247.667633 
	C461.218964,246.193100 461.615723,245.102829 461.915985,243.986618 
	C467.333649,223.848999 472.748322,203.710587 478.146118,183.567642 
	C485.684967,155.434952 493.239624,127.306450 500.720825,99.158424 
	C502.883667,91.020851 502.057220,83.117828 498.630127,75.381973 
	C493.106659,62.913860 482.425568,57.545620 470.161560,54.272820 
	C421.712097,41.343483 373.266479,28.399538 324.798279,15.540783 
	C313.290741,12.487795 301.701141,9.744057 289.873474,6.619293 
	C283.398438,4.587015 277.199219,2.793509 271.000000,1.000002 
z"/>
<path fill="#FFFFFF" opacity="1.000000" stroke="none" 
	d="
M354.000000,513.000000 
	C236.378708,513.000000 118.757408,513.000000 1.068055,513.000000 
	C1.068055,342.444519 1.068055,171.889038 1.068055,1.000000 
	C85.689018,1.000000 170.378479,1.000000 255.402542,1.351810 
	C242.810715,5.355963 233.947052,13.487986 230.337448,26.410715 
	C223.988541,49.140518 218.153976,72.013985 211.631836,94.901962 
	C151.021118,94.984077 90.880402,95.252144 30.746174,94.746758 
	C20.521187,94.660828 11.787932,104.208229 11.812070,113.787041 
	C12.101291,228.566223 12.118197,343.346680 11.847845,458.125946 
	C11.814088,472.457581 19.827913,480.033936 33.756084,480.023010 
	C97.726273,479.972870 161.696518,480.003143 225.666748,479.990692 
	C227.660095,479.990295 229.653412,479.838470 232.054810,479.848999 
	C262.991730,488.129517 293.529968,496.283722 324.044189,504.526703 
	C334.061432,507.232727 344.016510,510.169006 354.000000,513.000000 
z"/>
<path fill="#E4E8DB" opacity="1.000000" stroke="none" 
	d="
M354.466858,513.000000 
	C344.016510,510.169006 334.061432,507.232727 324.044189,504.526703 
	C293.529968,496.283722 262.991730,488.129517 232.417999,479.602936 
	C251.168289,479.206635 269.963379,479.140411 288.758545,479.091553 
	C312.465912,479.029968 326.893768,464.566162 326.910858,440.768860 
	C326.931885,411.488617 326.895416,382.208344 326.924316,352.928131 
	C326.939758,337.294128 327.040466,321.660187 327.485840,306.028687 
	C330.236694,306.664886 332.604401,307.298645 335.760651,308.143433 
	C338.781982,296.912872 341.753082,285.869049 344.824707,274.451599 
	C340.005280,273.191864 335.438110,271.865662 330.798309,270.882019 
	C329.692810,270.647644 328.344666,271.557831 327.039795,271.480865 
	C327.011566,258.677704 327.051727,246.335190 327.484375,233.999466 
	C370.255676,245.345795 412.634460,256.685333 455.013214,268.024872 
	C452.834717,277.020538 450.823883,286.060791 448.446198,295.003479 
	C441.384796,321.561951 434.188019,348.084412 427.027435,374.616455 
	C416.674988,412.975250 406.594696,451.411285 395.781281,489.639801 
	C392.300476,501.945435 383.186462,509.573395 370.239075,512.715210 
	C364.977905,513.000000 359.955811,513.000000 354.466858,513.000000 
M367.634796,352.959412 
	C365.323944,352.314270 363.013092,351.669098 360.444611,350.951996 
	C355.152039,370.939941 350.062347,390.335175 344.874878,409.704224 
	C339.647278,429.222900 334.322540,448.715576 328.850983,468.918884 
	C333.374359,470.139008 337.562103,471.035522 341.578857,472.425934 
	C344.782928,473.535065 346.181732,472.535492 346.964783,469.466156 
	C349.260040,460.469116 351.653595,451.496826 354.057129,442.527832 
	C360.968201,416.738678 367.816406,390.932129 374.873932,365.183044 
	C377.476166,355.688965 377.711365,355.753418 367.634796,352.959412 
M393.203156,295.797607 
	C395.271179,287.137238 397.097900,288.225311 387.459015,285.926605 
	C385.848877,285.542633 384.128235,285.373871 382.663971,284.675293 
	C379.051453,282.951813 377.918457,284.963684 377.178772,287.920593 
	C375.732880,293.700226 374.259796,299.473145 372.783630,305.245148 
	C369.615570,317.633057 369.638672,317.524139 382.090424,320.620514 
	C385.479736,321.463379 386.998077,320.504547 387.779175,317.284637 
	C389.456512,310.370544 391.280640,303.492065 393.203156,295.797607 
z"/>
<path fill="#EA692E" opacity="1.000000" stroke="none" 
	d="
M212.104019,94.827293 
	C218.153976,72.013985 223.988541,49.140518 230.337448,26.410715 
	C233.947052,13.487986 242.810715,5.355963 255.868576,1.351810 
	C260.689240,1.000000 265.378510,1.000000 270.533875,1.000002 
	C277.199219,2.793509 283.398438,4.587015 289.763367,7.006069 
	C287.438629,16.771574 284.897949,25.898190 282.468109,35.054226 
	C277.182434,54.971481 271.953308,74.903740 266.266907,94.896111 
	C247.923141,94.917336 230.013580,94.872314 212.104019,94.827293 
z"/>
<path fill="#DCC69F" opacity="1.000000" stroke="none" 
	d="
M266.701111,94.829865 
	C271.953308,74.903740 277.182434,54.971481 282.468109,35.054226 
	C284.897949,25.898190 287.438629,16.771574 290.039185,7.244842 
	C301.701141,9.744057 313.290741,12.487795 324.798279,15.540783 
	C373.266479,28.399538 421.712097,41.343483 470.161560,54.272820 
	C482.425568,57.545620 493.106659,62.913860 498.630127,75.381973 
	C502.057220,83.117828 502.883667,91.020851 500.720825,99.158424 
	C493.239624,127.306450 485.684967,155.434952 478.146118,183.567642 
	C472.748322,203.710587 467.333649,223.848999 461.915985,243.986618 
	C461.615723,245.102829 461.218964,246.193100 460.424561,247.605164 
	C458.606049,246.730331 457.147522,245.628433 455.866302,244.348999 
	C431.950836,220.466858 408.069397,196.550644 384.126251,172.696365 
	C382.657990,171.233536 380.736908,170.225174 379.005432,168.623734 
	C378.947968,167.478134 378.911591,166.714157 378.898926,165.486603 
	C378.922668,160.111526 378.922668,155.200043 378.922668,149.368332 
	C387.557373,151.727615 395.648346,152.859940 402.614807,156.281708 
	C406.280243,158.082108 407.984406,163.881622 410.564087,167.881866 
	C411.194122,168.858887 411.989960,169.790894 412.358826,170.864136 
	C414.351654,176.662537 419.219055,177.249817 424.873535,177.982330 
	C424.707611,175.979919 424.592255,174.405334 424.444519,172.833786 
	C423.285828,160.506271 421.333862,148.114807 431.507935,137.952438 
	C434.187744,135.275711 435.859802,131.590073 437.989563,128.375366 
	C431.938477,124.921829 427.043732,125.342316 422.119110,128.913422 
	C418.770996,131.341324 415.023132,133.220062 411.439178,135.319046 
	C410.597595,135.811935 409.559082,136.740234 408.842987,136.557892 
	C400.586060,134.455444 392.373779,132.177505 383.647491,129.809982 
	C394.575562,111.760338 405.012848,94.521355 415.485870,77.223343 
	C403.262787,71.386826 402.284515,71.686295 393.522003,79.968796 
	C379.756287,92.980339 365.847748,105.842827 351.835602,118.588013 
	C350.594147,119.717209 348.010315,120.177238 346.282227,119.821045 
	C339.806580,118.486244 333.427399,116.683289 326.794067,114.783310 
	C325.434998,114.350998 324.293945,114.191216 322.924225,113.768951 
	C315.689941,101.361435 305.071350,95.323257 291.157562,95.027870 
	C283.007690,94.854851 274.853394,94.888939 266.701111,94.829865 
z"/>
<path fill="#CDB994" opacity="1.000000" stroke="none" 
	d="
M379.026520,169.005356 
	C380.736908,170.225174 382.657990,171.233536 384.126251,172.696365 
	C408.069397,196.550644 431.950836,220.466858 455.866302,244.348999 
	C457.147522,245.628433 458.606049,246.730331 460.285095,247.977356 
	C458.908691,254.534088 457.229218,261.028320 455.281494,267.773743 
	C412.634460,256.685333 370.255676,245.345795 327.413574,233.537155 
	C326.941620,226.421051 326.912018,219.774017 326.928040,213.127075 
	C326.990051,187.374771 327.066589,161.622513 327.538025,135.902252 
	C331.788391,136.926239 335.589325,138.282150 339.502014,138.810852 
	C343.655548,139.372101 345.211700,141.614990 346.317291,145.373505 
	C351.751617,163.847153 357.424774,182.250900 363.074860,200.660538 
	C365.396973,208.226746 371.075745,211.493805 379.026520,210.357254 
	C379.026520,196.525070 379.026520,182.765213 379.026520,169.005356 
z"/>
<path fill="#135D9D" opacity="1.000000" stroke="none" 
	d="
M327.137756,135.870239 
	C327.066589,161.622513 326.990051,187.374771 326.928040,213.127075 
	C326.912018,219.774017 326.941620,226.421051 327.021057,233.530365 
	C327.051727,246.335190 327.011566,258.677704 326.954865,271.947510 
	C326.993103,283.925262 327.047882,294.975739 327.102692,306.026215 
	C327.040466,321.660187 326.939758,337.294128 326.924316,352.928131 
	C326.895416,382.208344 326.931885,411.488617 326.910858,440.768860 
	C326.893768,464.566162 312.465912,479.029968 288.758545,479.091553 
	C269.963379,479.140411 251.168289,479.206635 232.009949,479.511169 
	C229.653412,479.838470 227.660095,479.990295 225.666748,479.990692 
	C161.696518,480.003143 97.726273,479.972870 33.756084,480.023010 
	C19.827913,480.033936 11.814088,472.457581 11.847845,458.125946 
	C12.118197,343.346680 12.101291,228.566223 11.812070,113.787041 
	C11.787932,104.208229 20.521187,94.660828 30.746174,94.746758 
	C90.880402,95.252144 151.021118,94.984077 211.631836,94.901962 
	C230.013580,94.872314 247.923141,94.917336 266.266907,94.896111 
	C274.853394,94.888939 283.007690,94.854851 291.157562,95.027870 
	C305.071350,95.323257 315.689941,101.361435 322.973938,114.131218 
	C324.547455,121.794067 325.842621,128.832153 327.137756,135.870239 
M260.494354,200.038986 
	C236.867203,159.472305 192.310654,140.789566 148.992447,149.533539 
	C94.150337,160.603653 58.601521,211.469467 66.065544,267.155273 
	C74.576477,330.651611 141.171692,372.186432 201.883453,351.863678 
	C265.238861,330.655975 293.131775,259.181946 260.494354,200.038986 
M232.875107,402.235229 
	C227.783859,402.235229 222.692612,402.235229 217.307709,402.235229 
	C217.307709,409.703186 217.253403,417.007843 217.379990,424.309387 
	C217.394928,425.172058 218.401489,426.017548 218.948380,426.871002 
	C219.610321,425.981171 220.746979,425.139496 220.843109,424.192230 
	C221.107101,421.591705 220.934189,418.946808 220.934189,416.461182 
	C227.492874,414.194305 229.946457,418.501587 232.623444,422.602722 
	C234.040649,424.773895 234.851303,428.202026 239.376892,426.276611 
	C236.737167,422.520691 234.194138,418.902313 231.677429,415.321442 
	C238.709900,412.238403 239.562164,407.094177 232.875107,402.235229 
M126.154297,426.888580 
	C128.142761,426.931610 130.176575,427.261780 132.110031,426.956451 
	C135.856308,426.364807 138.626678,424.387360 139.036789,420.283264 
	C139.442398,416.224396 136.910095,414.262543 133.474030,413.113953 
	C131.431808,412.431274 129.240738,412.064240 127.351318,411.096832 
	C125.947952,410.378296 124.921906,408.922821 123.727806,407.795593 
	C125.169937,406.691833 126.641899,404.654755 128.047302,404.699646 
	C130.241547,404.769806 132.429764,406.168427 134.542175,407.169525 
	C135.572052,407.657593 136.424911,408.519196 137.999832,409.688141 
	C137.185791,402.656586 132.601624,399.913696 125.800911,402.124969 
	C123.580711,402.846893 120.734970,405.584900 120.573227,407.593933 
	C120.410126,409.619781 122.949623,412.179840 124.833725,413.939850 
	C126.040276,415.066956 128.204239,415.170624 129.940323,415.728973 
	C132.685760,416.611969 136.806976,416.887726 135.351959,421.060791 
	C133.997971,424.944122 129.969910,424.542236 126.744568,423.464355 
	C125.252831,422.965851 124.299789,421.016083 122.919937,419.963684 
	C122.048325,419.298920 120.839317,419.076569 119.781654,418.655762 
	C119.355545,419.292908 118.929428,419.930054 118.503319,420.567230 
	C120.792885,422.598633 123.082443,424.630066 126.154297,426.888580 
M212.032013,420.131042 
	C214.699768,411.423248 211.868622,404.105682 204.994827,401.942352 
	C199.393234,400.179352 192.923676,402.827881 190.638779,407.819427 
	C187.526337,414.618835 189.688797,422.660156 195.470016,425.784821 
	C201.254150,428.911041 207.510895,427.027435 212.032013,420.131042 
M158.826797,421.202454 
	C154.526001,425.440521 149.842667,425.089722 146.294922,420.376587 
	C145.731796,419.628510 144.662888,419.261169 143.827820,418.717804 
	C143.673523,419.863983 143.071625,421.185425 143.440201,422.126892 
	C145.321564,426.932678 153.878250,429.152435 158.641098,425.680664 
	C160.478043,424.341675 162.096329,421.363373 162.042145,419.175812 
	C161.995361,417.287323 159.755707,414.986145 157.900146,413.736542 
	C155.914642,412.399384 153.117249,412.332336 150.916443,411.228149 
	C149.386307,410.460480 148.265182,408.877533 146.961349,407.658813 
	C148.611130,406.571045 150.257553,404.623718 151.911514,404.617249 
	C153.893524,404.609558 155.911789,406.200897 157.855637,407.212555 
	C158.898849,407.755402 159.818939,408.534790 161.474442,409.676178 
	C160.210907,402.527527 155.108795,399.753876 148.508636,402.202209 
	C146.550446,402.928619 144.109909,405.455902 144.009705,407.274719 
	C143.894440,409.367432 145.658295,412.206726 147.470139,413.589386 
	C149.452835,415.102417 152.596161,414.994080 154.904419,416.214844 
	C156.547897,417.084045 157.646652,418.983154 158.826797,421.202454 
M76.274261,403.196533 
	C76.257416,410.018463 76.152863,416.842499 76.313553,423.660248 
	C76.339134,424.745483 77.556557,425.802643 78.222961,426.872772 
	C78.771004,425.856110 79.676193,424.878601 79.792900,423.814606 
	C80.037498,421.584717 79.867088,419.309265 79.867088,417.192200 
	C83.734291,416.793213 86.910622,416.703400 89.981712,416.088257 
	C93.792419,415.324921 95.483040,412.565918 95.367821,408.795837 
	C95.258331,405.213287 93.413399,402.474884 89.839478,402.171082 
	C85.439430,401.797058 80.967911,402.263794 76.274261,403.196533 
M179.521179,416.251007 
	C184.093658,415.594696 186.296890,412.812408 185.892822,408.356140 
	C185.473297,403.729675 182.318741,401.932709 177.953613,401.908844 
	C174.377899,401.889313 170.801987,401.904907 167.225861,401.904907 
	C167.225861,410.563110 167.225861,418.620911 167.225861,427.413727 
	C172.657898,424.974915 168.650452,420.006561 171.072128,417.022614 
	C173.448990,416.826416 176.066803,416.610352 179.521179,416.251007 
M97.674194,418.093414 
	C96.667046,420.814484 95.659904,423.535583 94.652763,426.256653 
	C95.162621,426.602814 95.672485,426.948975 96.182343,427.295135 
	C97.139717,426.073334 98.520470,424.987946 98.967125,423.601593 
	C99.923546,420.632874 101.035347,418.710144 104.769318,419.075592 
	C108.194389,419.410828 111.715164,418.553711 112.772606,423.409698 
	C113.089447,424.864716 114.848839,426.005554 115.947357,427.290344 
	C116.467789,426.918915 116.988228,426.547485 117.508659,426.176056 
	C114.395912,418.585205 111.333443,410.972778 108.093834,403.436462 
	C107.764587,402.670593 106.316452,401.882263 105.484047,401.974548 
	C104.613594,402.071075 103.482529,403.061340 103.118385,403.933533 
	C101.271164,408.358124 99.636162,412.871338 97.674194,418.093414 
M254.477448,404.933105 
	C259.395874,404.895050 259.395874,404.895050 259.456085,402.076599 
	C253.052536,402.076599 246.653076,402.076599 240.253632,402.076599 
	C240.104034,402.646759 239.954437,403.216949 239.804855,403.787109 
	C242.510513,404.400299 245.216187,405.013489 248.175095,405.684082 
	C248.175095,411.478180 248.061447,417.298248 248.263672,423.107330 
	C248.308182,424.385925 249.473953,425.625519 250.123398,426.883057 
	C250.709473,425.566406 251.740845,424.269714 251.800995,422.929443 
	C252.009979,418.272278 251.759232,413.594757 251.959122,408.936798 
	C252.016907,407.590424 253.000946,406.283783 254.477448,404.933105 
z"/>
<path fill="#C8BFB3" opacity="1.000000" stroke="none" 
	d="
M368.039368,353.003387 
	C377.711365,355.753418 377.476166,355.688965 374.873932,365.183044 
	C367.816406,390.932129 360.968201,416.738678 354.057129,442.527832 
	C351.653595,451.496826 349.260040,460.469116 346.964783,469.466156 
	C346.181732,472.535492 344.782928,473.535065 341.578857,472.425934 
	C337.562103,471.035522 333.374359,470.139008 328.850983,468.918884 
	C334.322540,448.715576 339.647278,429.222900 344.874878,409.704224 
	C350.062347,390.335175 355.152039,370.939941 360.444611,350.951996 
	C363.013092,351.669098 365.323944,352.314270 368.039368,353.003387 
z"/>
<path fill="#C9BFB3" opacity="1.000000" stroke="none" 
	d="
M393.123901,296.198303 
	C391.280640,303.492065 389.456512,310.370544 387.779175,317.284637 
	C386.998077,320.504547 385.479736,321.463379 382.090424,320.620514 
	C369.638672,317.524139 369.615570,317.633057 372.783630,305.245148 
	C374.259796,299.473145 375.732880,293.700226 377.178772,287.920593 
	C377.918457,284.963684 379.051453,282.951813 382.663971,284.675293 
	C384.128235,285.373871 385.848877,285.542633 387.459015,285.926605 
	C397.097900,288.225311 395.271179,287.137238 393.123901,296.198303 
z"/>
<path fill="#C8BFB3" opacity="1.000000" stroke="none" 
	d="
M327.485840,306.028687 
	C327.047882,294.975739 326.993103,283.925262 327.023193,272.408142 
	C328.344666,271.557831 329.692810,270.647644 330.798309,270.882019 
	C335.438110,271.865662 340.005280,273.191864 344.824707,274.451599 
	C341.753082,285.869049 338.781982,296.912872 335.760651,308.143433 
	C332.604401,307.298645 330.236694,306.664886 327.485840,306.028687 
z"/>
<path fill="#F5F8EB" opacity="1.000000" stroke="none" 
	d="
M327.012054,115.055832 
	C333.427399,116.683289 339.806580,118.486244 346.282227,119.821045 
	C348.010315,120.177238 350.594147,119.717209 351.835602,118.588013 
	C365.847748,105.842827 379.756287,92.980339 393.522003,79.968796 
	C402.284515,71.686295 403.262787,71.386826 415.485870,77.223343 
	C405.012848,94.521355 394.575562,111.760338 383.647491,129.809982 
	C392.373779,132.177505 400.586060,134.455444 408.842987,136.557892 
	C409.559082,136.740234 410.597595,135.811935 411.439178,135.319046 
	C415.023132,133.220062 418.770996,131.341324 422.119110,128.913422 
	C427.043732,125.342316 431.938477,124.921829 437.989563,128.375366 
	C435.859802,131.590073 434.187744,135.275711 431.507935,137.952438 
	C421.333862,148.114807 423.285828,160.506271 424.444519,172.833786 
	C424.592255,174.405334 424.707611,175.979919 424.873535,177.982330 
	C419.219055,177.249817 414.351654,176.662537 412.358826,170.864136 
	C411.989960,169.790894 411.194122,168.858887 410.564087,167.881866 
	C407.984406,163.881622 406.280243,158.082108 402.614807,156.281708 
	C395.648346,152.859940 387.557373,151.727615 378.922668,149.368332 
	C378.922668,155.200043 378.922668,160.111526 378.567383,165.462646 
	C376.224915,164.180954 374.118347,162.578369 372.269440,160.719513 
	C357.156464,145.525314 342.091583,130.283310 327.012054,115.055832 
z"/>
<path fill="#E3E7D9" opacity="1.000000" stroke="none" 
	d="
M326.794067,114.783310 
	C342.091583,130.283310 357.156464,145.525314 372.269440,160.719513 
	C374.118347,162.578369 376.224915,164.180954 378.543640,165.926239 
	C378.911591,166.714157 378.947968,167.478134 379.005432,168.623734 
	C379.026520,182.765213 379.026520,196.525070 379.026520,210.357254 
	C371.075745,211.493805 365.396973,208.226746 363.074860,200.660538 
	C357.424774,182.250900 351.751617,163.847153 346.317291,145.373505 
	C345.211700,141.614990 343.655548,139.372101 339.502014,138.810852 
	C335.589325,138.282150 331.788391,136.926239 327.538025,135.902252 
	C325.842621,128.832153 324.547455,121.794067 323.202606,114.393707 
	C324.293945,114.191216 325.434998,114.350998 326.794067,114.783310 
z"/>
<path fill="#E5BD2A" opacity="1.000000" stroke="none" 
	d="
M260.692444,200.350159 
	C293.131775,259.181946 265.238861,330.655975 201.883453,351.863678 
	C141.171692,372.186432 74.576477,330.651611 66.065544,267.155273 
	C58.601521,211.469467 94.150337,160.603653 148.992447,149.533539 
	C192.310654,140.789566 236.867203,159.472305 260.692444,200.350159 
M143.324005,169.710297 
	C120.464005,176.757095 104.054283,191.341812 92.317017,212.729202 
	C105.357101,212.729202 117.425034,212.729202 128.708893,212.729202 
	C133.875763,198.260132 138.923615,184.124390 144.265717,169.842300 
	C144.200958,169.914658 144.136185,169.987030 143.324005,169.710297 
M195.924698,169.439468 
	C195.778839,169.781387 195.632980,170.123306 195.649597,171.169846 
	C200.642685,184.855591 205.635773,198.541336 210.774506,212.626297 
	C222.020477,212.626297 234.218445,212.626297 247.155197,212.626297 
	C235.263260,191.526260 219.127716,176.634323 195.924698,169.439468 
M195.052368,236.489609 
	C195.612167,231.647476 193.850784,229.301544 188.641495,230.182541 
	C186.701797,230.510590 184.660126,230.235611 182.664948,230.235611 
	C170.224304,230.235611 157.783676,230.235596 144.475616,230.235596 
	C144.475616,245.022141 144.475616,259.334015 144.475616,273.772919 
	C161.665497,273.772919 177.896820,273.772919 195.105942,273.772919 
	C195.105942,261.499939 195.105942,249.446762 195.052368,236.489609 
M220.583176,230.234573 
	C217.844208,230.234573 215.105240,230.234573 212.687866,230.234573 
	C212.687866,245.263367 212.687866,259.469513 212.687866,273.829834 
	C226.348053,273.829834 239.963089,273.829834 253.741577,273.829834 
	C257.830688,259.295929 257.977112,244.943466 253.600067,230.234741 
	C242.845932,230.234741 232.204102,230.234741 220.583176,230.234573 
M126.714920,265.835999 
	C126.714920,254.120743 126.714920,242.405487 126.714920,230.257675 
	C113.564629,230.257675 100.635040,230.212051 87.707581,230.356216 
	C86.807755,230.366241 85.354057,231.640594 85.117775,232.570816 
	C81.625992,246.317261 81.678589,260.033142 85.604729,273.614258 
	C99.590973,273.614258 113.273216,273.614258 127.144936,273.614258 
	C127.016037,271.066284 126.907120,268.913300 126.714920,265.835999 
M148.525436,291.659058 
	C148.411728,291.964783 148.145035,292.305817 148.206238,292.571198 
	C151.774597,308.047943 157.236267,322.789093 165.485733,336.414703 
	C168.102905,340.737488 171.751419,340.753510 174.022415,336.051117 
	C178.851379,326.052246 183.433792,315.919220 187.672638,305.657532 
	C189.465683,301.316803 190.137802,296.513092 191.455688,291.390076 
	C176.895706,291.390076 163.110168,291.390076 148.525436,291.659058 
M186.189331,194.322678 
	C182.072067,185.465515 178.108627,176.531982 173.767120,167.786133 
	C171.841599,163.907227 168.167282,163.661514 166.080673,167.005447 
	C157.307297,181.065521 151.600830,196.344482 148.025589,212.615723 
	C162.524643,212.615723 176.715622,212.615723 191.580551,212.615723 
	C189.799820,206.447571 188.153442,200.744812 186.189331,194.322678 
M93.043877,292.213867 
	C99.722519,306.496094 110.256752,317.372986 123.505699,325.532318 
	C129.803299,329.410614 136.763382,332.213135 143.334641,335.459167 
	C138.933212,321.080017 134.887772,307.615570 130.588791,294.232574 
	C130.192123,292.997711 128.191330,291.468384 126.917511,291.451874 
	C115.786499,291.307098 104.651405,291.475952 93.043877,292.213867 
M221.532867,291.324280 
	C219.372238,291.324249 217.182098,291.551697 215.057236,291.275970 
	C210.868118,290.732391 209.219254,292.359711 207.976807,296.522491 
	C204.429977,308.405945 200.136566,320.066437 196.147858,331.818390 
	C195.824234,332.771881 195.584641,333.753876 195.160217,335.229401 
	C218.514725,327.390747 235.550171,313.231110 247.196426,291.324554 
	C238.380890,291.324554 230.451416,291.324554 221.532867,291.324280 
z"/>
<path fill="#E3ECF4" opacity="1.000000" stroke="none" 
	d="
M233.249847,402.366089 
	C239.562164,407.094177 238.709900,412.238403 231.677429,415.321442 
	C234.194138,418.902313 236.737167,422.520691 239.376892,426.276611 
	C234.851303,428.202026 234.040649,424.773895 232.623444,422.602722 
	C229.946457,418.501587 227.492874,414.194305 220.934189,416.461182 
	C220.934189,418.946808 221.107101,421.591705 220.843109,424.192230 
	C220.746979,425.139496 219.610321,425.981171 218.948380,426.871002 
	C218.401489,426.017548 217.394928,425.172058 217.379990,424.309387 
	C217.253403,417.007843 217.307709,409.703186 217.307709,402.235229 
	C222.692612,402.235229 227.783859,402.235229 233.249847,402.366089 
M233.560867,410.020264 
	C233.463364,404.670258 229.754517,403.306030 221.327087,405.444305 
	C221.327087,407.886597 221.327087,410.271637 221.327087,413.851013 
	C225.704498,412.680725 229.414337,411.688904 233.560867,410.020264 
z"/>
<path fill="#ECF2F7" opacity="1.000000" stroke="none" 
	d="
M125.763153,426.775024 
	C123.082443,424.630066 120.792885,422.598633 118.503319,420.567230 
	C118.929428,419.930054 119.355545,419.292908 119.781654,418.655762 
	C120.839317,419.076569 122.048325,419.298920 122.919937,419.963684 
	C124.299789,421.016083 125.252831,422.965851 126.744568,423.464355 
	C129.969910,424.542236 133.997971,424.944122 135.351959,421.060791 
	C136.806976,416.887726 132.685760,416.611969 129.940323,415.728973 
	C128.204239,415.170624 126.040276,415.066956 124.833725,413.939850 
	C122.949623,412.179840 120.410126,409.619781 120.573227,407.593933 
	C120.734970,405.584900 123.580711,402.846893 125.800911,402.124969 
	C132.601624,399.913696 137.185791,402.656586 137.999832,409.688141 
	C136.424911,408.519196 135.572052,407.657593 134.542175,407.169525 
	C132.429764,406.168427 130.241547,404.769806 128.047302,404.699646 
	C126.641899,404.654755 125.169937,406.691833 123.727798,407.795593 
	C124.921906,408.922821 125.947952,410.378296 127.351318,411.096832 
	C129.240738,412.064240 131.431808,412.431274 133.474030,413.113953 
	C136.910095,414.262543 139.442398,416.224396 139.036789,420.283264 
	C138.626678,424.387360 135.856308,426.364807 132.110031,426.956451 
	C130.176575,427.261780 128.142761,426.931610 125.763153,426.775024 
z"/>
<path fill="#EDF2F7" opacity="1.000000" stroke="none" 
	d="
M211.897949,420.505249 
	C207.510895,427.027435 201.254150,428.911041 195.470016,425.784821 
	C189.688797,422.660156 187.526337,414.618835 190.638779,407.819427 
	C192.923676,402.827881 199.393234,400.179352 204.994827,401.942352 
	C211.868622,404.105682 214.699768,411.423248 211.897949,420.505249 
M194.995926,421.425293 
	C199.462006,424.840515 203.378616,425.078003 206.627899,422.130707 
	C210.036209,419.039185 210.762924,411.845673 207.918060,407.842865 
	C205.347610,404.226196 201.797058,403.408569 197.790726,405.081085 
	C192.782227,407.172028 191.401642,414.107056 194.995926,421.425293 
z"/>
<path fill="#F1F5F9" opacity="1.000000" stroke="none" 
	d="
M158.907654,420.812531 
	C157.646652,418.983154 156.547897,417.084045 154.904419,416.214844 
	C152.596161,414.994080 149.452835,415.102417 147.470139,413.589386 
	C145.658295,412.206726 143.894440,409.367432 144.009705,407.274719 
	C144.109909,405.455902 146.550446,402.928619 148.508636,402.202209 
	C155.108795,399.753876 160.210907,402.527527 161.474442,409.676178 
	C159.818939,408.534790 158.898849,407.755402 157.855637,407.212555 
	C155.911789,406.200897 153.893524,404.609558 151.911514,404.617249 
	C150.257553,404.623718 148.611130,406.571045 146.961349,407.658813 
	C148.265182,408.877533 149.386307,410.460480 150.916443,411.228149 
	C153.117249,412.332336 155.914642,412.399384 157.900146,413.736542 
	C159.755707,414.986145 161.995361,417.287323 162.042145,419.175812 
	C162.096329,421.363373 160.478043,424.341675 158.641098,425.680664 
	C153.878250,429.152435 145.321564,426.932678 143.440201,422.126892 
	C143.071625,421.185425 143.673523,419.863983 143.827820,418.717804 
	C144.662888,419.261169 145.731796,419.628510 146.294922,420.376587 
	C149.842667,425.089722 154.526001,425.440521 158.907654,420.812531 
z"/>
<path fill="#E3ECF3" opacity="1.000000" stroke="none" 
	d="
M76.400772,402.781830 
	C80.967911,402.263794 85.439430,401.797058 89.839478,402.171082 
	C93.413399,402.474884 95.258331,405.213287 95.367821,408.795837 
	C95.483040,412.565918 93.792419,415.324921 89.981712,416.088257 
	C86.910622,416.703400 83.734291,416.793213 79.867088,417.192200 
	C79.867088,419.309265 80.037498,421.584717 79.792900,423.814606 
	C79.676193,424.878601 78.771004,425.856110 78.222961,426.872772 
	C77.556557,425.802643 76.339134,424.745483 76.313553,423.660248 
	C76.152863,416.842499 76.257416,410.018463 76.400772,402.781830 
M80.767281,413.574066 
	C83.088135,413.517426 85.584923,413.968170 87.674156,413.243622 
	C89.344879,412.664246 90.519920,410.655457 91.914970,409.281097 
	C90.419739,407.840668 89.149216,405.720215 87.372047,405.132996 
	C85.179840,404.408600 82.566093,404.959869 80.115860,404.959869 
	C80.115860,408.033142 80.115860,410.501099 80.767281,413.574066 
z"/>
<path fill="#F1F6F9" opacity="1.000000" stroke="none" 
	d="
M179.102905,416.322632 
	C176.066803,416.610352 173.448990,416.826416 171.072128,417.022614 
	C168.650452,420.006561 172.657898,424.974915 167.225861,427.413727 
	C167.225861,418.620911 167.225861,410.563110 167.225861,401.904907 
	C170.801987,401.904907 174.377899,401.889313 177.953613,401.908844 
	C182.318741,401.932709 185.473297,403.729675 185.892822,408.356140 
	C186.296890,412.812408 184.093658,415.594696 179.102905,416.322632 
M182.340912,408.550659 
	C179.931488,401.952332 174.676285,405.986237 170.579346,404.736969 
	C170.579346,408.108337 170.579346,410.781189 170.579346,413.403595 
	C179.010895,414.313629 180.654022,413.736603 182.340912,408.550659 
z"/>
<path fill="#F0F5F9" opacity="1.000000" stroke="none" 
	d="
M97.800499,417.723450 
	C99.636162,412.871338 101.271164,408.358124 103.118385,403.933533 
	C103.482529,403.061340 104.613594,402.071075 105.484047,401.974548 
	C106.316452,401.882263 107.764587,402.670593 108.093834,403.436462 
	C111.333443,410.972778 114.395912,418.585205 117.508659,426.176056 
	C116.988228,426.547485 116.467789,426.918915 115.947357,427.290344 
	C114.848839,426.005554 113.089447,424.864716 112.772606,423.409698 
	C111.715164,418.553711 108.194389,419.410828 104.769318,419.075592 
	C101.035347,418.710144 99.923546,420.632874 98.967125,423.601593 
	C98.520470,424.987946 97.139717,426.073334 96.182343,427.295135 
	C95.672485,426.948975 95.162621,426.602814 94.652763,426.256653 
	C95.659904,423.535583 96.667046,420.814484 97.800499,417.723450 
M102.439537,414.036194 
	C102.939003,417.112213 103.949043,417.373016 109.808472,415.792053 
	C108.493431,412.360657 107.191269,408.962860 105.637474,404.908447 
	C104.478607,408.300964 103.621460,410.810181 102.439537,414.036194 
z"/>
<path fill="#DEE9F2" opacity="1.000000" stroke="none" 
	d="
M254.018890,404.946014 
	C253.000946,406.283783 252.016907,407.590424 251.959122,408.936798 
	C251.759232,413.594757 252.009979,418.272278 251.800995,422.929443 
	C251.740845,424.269714 250.709473,425.566406 250.123383,426.883057 
	C249.473953,425.625519 248.308182,424.385925 248.263672,423.107330 
	C248.061447,417.298248 248.175095,411.478180 248.175095,405.684082 
	C245.216187,405.013489 242.510513,404.400299 239.804855,403.787109 
	C239.954437,403.216949 240.104034,402.646759 240.253632,402.076599 
	C246.653076,402.076599 253.052536,402.076599 259.456085,402.076599 
	C259.395874,404.895050 259.395874,404.895050 254.018890,404.946014 
z"/>
<path fill="#155E9C" opacity="1.000000" stroke="none" 
	d="
M195.079163,236.941589 
	C195.105942,249.446762 195.105942,261.499939 195.105942,273.772919 
	C177.896820,273.772919 161.665497,273.772919 144.475616,273.772919 
	C144.475616,259.334015 144.475616,245.022141 144.475616,230.235596 
	C157.783676,230.235596 170.224304,230.235611 182.664948,230.235611 
	C184.660126,230.235611 186.701797,230.510590 188.641495,230.182541 
	C193.850784,229.301544 195.612167,231.647476 195.079163,236.941589 
z"/>
<path fill="#155E9B" opacity="1.000000" stroke="none" 
	d="
M221.072723,230.234650 
	C232.204102,230.234741 242.845932,230.234741 253.600067,230.234741 
	C257.977112,244.943466 257.830688,259.295929 253.741577,273.829834 
	C239.963089,273.829834 226.348053,273.829834 212.687866,273.829834 
	C212.687866,259.469513 212.687866,245.263367 212.687866,230.234573 
	C215.105240,230.234573 217.844208,230.234573 221.072723,230.234650 
z"/>
<path fill="#145E9C" opacity="1.000000" stroke="none" 
	d="
M126.756561,266.298157 
	C126.907120,268.913300 127.016037,271.066284 127.144936,273.614258 
	C113.273216,273.614258 99.590973,273.614258 85.604729,273.614258 
	C81.678589,260.033142 81.625992,246.317261 85.117775,232.570816 
	C85.354057,231.640594 86.807755,230.366241 87.707581,230.356216 
	C100.635040,230.212051 113.564629,230.257675 126.714920,230.257675 
	C126.714920,242.405487 126.714920,254.120743 126.756561,266.298157 
z"/>
<path fill="#175F9A" opacity="1.000000" stroke="none" 
	d="
M148.925018,291.524567 
	C163.110168,291.390076 176.895706,291.390076 191.455688,291.390076 
	C190.137802,296.513092 189.465683,301.316803 187.672638,305.657532 
	C183.433792,315.919220 178.851379,326.052246 174.022415,336.051117 
	C171.751419,340.753510 168.102905,340.737488 165.485733,336.414703 
	C157.236267,322.789093 151.774597,308.047943 148.206238,292.571198 
	C148.145035,292.305817 148.411728,291.964783 148.925018,291.524567 
z"/>
<path fill="#155E9B" opacity="1.000000" stroke="none" 
	d="
M186.348206,194.682373 
	C188.153442,200.744812 189.799820,206.447571 191.580551,212.615723 
	C176.715622,212.615723 162.524643,212.615723 148.025589,212.615723 
	C151.600830,196.344482 157.307297,181.065521 166.080673,167.005447 
	C168.167282,163.661514 171.841599,163.907227 173.767120,167.786133 
	C178.108627,176.531982 182.072067,185.465515 186.348206,194.682373 
z"/>
<path fill="#18609A" opacity="1.000000" stroke="none" 
	d="
M93.280701,291.882782 
	C104.651405,291.475952 115.786499,291.307098 126.917511,291.451874 
	C128.191330,291.468384 130.192123,292.997711 130.588791,294.232574 
	C134.887772,307.615570 138.933212,321.080017 143.334641,335.459167 
	C136.763382,332.213135 129.803299,329.410614 123.505699,325.532318 
	C110.256752,317.372986 99.722519,306.496094 93.280701,291.882782 
z"/>
<path fill="#18609A" opacity="1.000000" stroke="none" 
	d="
M222.027405,291.324402 
	C230.451416,291.324554 238.380890,291.324554 247.196426,291.324554 
	C235.550171,313.231110 218.514725,327.390747 195.160217,335.229401 
	C195.584641,333.753876 195.824234,332.771881 196.147858,331.818390 
	C200.136566,320.066437 204.429977,308.405945 207.976807,296.522491 
	C209.219254,292.359711 210.868118,290.732391 215.057236,291.275970 
	C217.182098,291.551697 219.372238,291.324249 222.027405,291.324402 
z"/>
<path fill="#165F9B" opacity="1.000000" stroke="none" 
	d="
M196.151489,169.835861 
	C219.127716,176.634323 235.263260,191.526260 247.155197,212.626297 
	C234.218445,212.626297 222.020477,212.626297 210.774506,212.626297 
	C205.635773,198.541336 200.642685,184.855591 195.739899,170.665939 
	C195.830185,170.162033 196.151489,169.835861 196.151489,169.835861 
z"/>
<path fill="#155E9B" opacity="1.000000" stroke="none" 
	d="
M143.971451,169.988632 
	C138.923615,184.124390 133.875763,198.260132 128.708893,212.729202 
	C117.425034,212.729202 105.357101,212.729202 92.317017,212.729202 
	C104.054283,191.341812 120.464005,176.757095 143.673157,169.866562 
	C144.022293,170.022827 143.971451,169.988632 143.971451,169.988632 
z"/>
<path fill="#155E9B" opacity="1.000000" stroke="none" 
	d="
M144.046860,170.041107 
	C144.136185,169.987030 144.200958,169.914658 144.118591,169.915466 
	C143.971451,169.988632 144.022293,170.022827 144.046860,170.041107 
z"/>
<path fill="#165F9B" opacity="1.000000" stroke="none" 
	d="
M195.658646,170.313629 
	C195.632980,170.123306 195.778839,169.781387 196.038086,169.637665 
	C196.151489,169.835861 195.830185,170.162033 195.658646,170.313629 
z"/>
<path fill="#1962A0" opacity="1.000000" stroke="none" 
	d="
M233.342529,410.358704 
	C229.414337,411.688904 225.704498,412.680725 221.327087,413.851013 
	C221.327087,410.271637 221.327087,407.886597 221.327087,405.444305 
	C229.754517,403.306030 233.463364,404.670258 233.342529,410.358704 
z"/>
<path fill="#17619F" opacity="1.000000" stroke="none" 
	d="
M194.766571,421.093018 
	C191.401642,414.107056 192.782227,407.172028 197.790726,405.081085 
	C201.797058,403.408569 205.347610,404.226196 207.918060,407.842865 
	C210.762924,411.845673 210.036209,419.039185 206.627899,422.130707 
	C203.378616,425.078003 199.462006,424.840515 194.766571,421.093018 
z"/>
<path fill="#1C64A1" opacity="1.000000" stroke="none" 
	d="
M80.441574,413.271545 
	C80.115860,410.501099 80.115860,408.033142 80.115860,404.959869 
	C82.566093,404.959869 85.179840,404.408600 87.372047,405.132996 
	C89.149216,405.720215 90.419739,407.840668 91.914963,409.281097 
	C90.519920,410.655457 89.344879,412.664246 87.674156,413.243622 
	C85.584923,413.968170 83.088135,413.517426 80.441574,413.271545 
z"/>
<path fill="#2067A3" opacity="1.000000" stroke="none" 
	d="
M182.397888,408.981689 
	C180.654022,413.736603 179.010895,414.313629 170.579346,413.403595 
	C170.579346,410.781189 170.579346,408.108337 170.579346,404.736969 
	C174.676285,405.986237 179.931488,401.952332 182.397888,408.981689 
z"/>
<path fill="#3273AA" opacity="1.000000" stroke="none" 
	d="
M102.601929,413.677795 
	C103.621460,410.810181 104.478607,408.300964 105.637474,404.908447 
	C107.191269,408.962860 108.493431,412.360657 109.808472,415.792053 
	C103.949043,417.373016 102.939003,417.112213 102.601929,413.677795 
z"/>
</svg>